<svg width="150px" height="150px" fill="#fff" viewBox="0 0 150 150" version="1.1" xmlns="http://www.w3.org/2000/svg"
	 xmlns:xlink="http://www.w3.org/1999/xlink">
	<path d="M75,150 C33.5769231,150 0,116.423077 0,75 C0,61.6153846 3.51923077,49.0673077 9.66346154,38.1634615 C12.2307692,34.7884615 16.7596154,37.4423077 14.2788462,42.0865385 C8.97115385,51.8942308 5.94230769,63.1153846 5.94230769,75 C5.94230769,113.134615 36.8653846,144.057692 75,144.057692 C113.134615,144.057692 144.057692,113.134615 144.057692,75 C144.057692,36.8653846 113.134615,5.94230769 75,5.94230769 C62.4519231,5.94230769 50.6826923,9.28846154 40.5288462,15.1442308 C35.3653846,18.0288462 33.3461538,12.6634615 36.4903846,10.6153846 C47.7692308,3.89423077 60.9230769,0 75,0 C116.423077,0 150,33.5769231 150,75 C150,116.423077 116.423077,150 75,150 Z M29.2788462,33.0865385 C29.2788462,33.1153846 29.2788462,33.1153846 29.2788462,33.0865385 C29.2788462,33.75 28.7596154,34.2692308 28.125,34.2692308 C27.9230769,34.2692308 27.75,34.2115385 27.5769231,34.125 L22.0673077,31.3557692 C19.8173077,30.3461538 18.3173077,28.3557692 18.2884615,26.1057692 C18.2884615,24.4038462 18.0288462,22.4423077 15.3173077,20.1057692 C9.98076923,15.4903846 1.35576923,7.99038462 0.432692308,7.18269231 C0.403846154,7.15384615 0.403846154,7.15384615 0.375,7.125 C0.346153846,7.125 0.346153846,7.125 0.346153846,7.125 C0.144230769,6.92307692 0,6.60576923 0,6.28846154 C0,5.65384615 0.519230769,5.13461538 1.15384615,5.13461538 C1.35576923,5.13461538 1.55769231,5.19230769 1.73076923,5.27884615 L25.4711538,17.3942308 C25.5288462,17.4230769 25.6153846,17.4807692 25.6730769,17.5096154 L25.7596154,17.5673077 C27.8653846,18.7211538 29.2788462,20.7115385 29.2788462,22.9615385 C29.2788462,22.9903846 29.2788462,22.9903846 29.2788462,23.0192308 C29.2788462,23.0192308 29.2788462,26.7692308 29.2788462,29.7115385 C29.2788462,31.9326923 29.2788462,32.9134615 29.2788462,33.0865385 Z M50.442636,54.0262369 C46.5212473,54.0262369 43.3423337,50.8863569 43.3423337,47.0131185 C43.3423337,43.1398801 46.5212473,40 50.442636,40 C54.3640248,40 57.5429384,43.1398801 57.5429384,47.0131185 C57.5429384,50.8863569 54.3640248,54.0262369 50.442636,54.0262369 Z M42.5208111,78.6005518 C40.5256848,78.6005518 39,77.0362207 39,75.123552 L39,60.1120009 C39,58.1993322 40.584365,56.6344215 42.5208111,56.6344215 L58.364461,56.6344215 C60.3009071,56.6344215 61.8852721,58.1993322 61.8852721,60.1120009 L61.8852721,61.5030327 C58.7752223,62.8361048 56.6040555,65.9079666 56.6040555,69.4435057 L56.6040555,87.6428379 C56.6040555,89.0918293 57.0148167,90.4822815 57.6602988,91.7000139 L57.6602988,92.5108695 C57.6602988,94.4241177 56.0759338,95.9884489 54.1394877,95.9884489 L46.7457844,95.9884489 C44.8093383,95.9884489 43.2249733,94.4241177 43.2249733,92.5108695 L43.2249733,78.6005518 L42.5208111,78.6005518 Z M99.6166309,54.0262369 C95.6952422,54.0262369 92.5163286,50.8863569 92.5163286,47.0131185 C92.5163286,43.1398801 95.6952422,40 99.6166309,40 C103.53802,40 106.716933,43.1398801 106.716933,47.0131185 C106.716933,50.8863569 103.53802,54.0262369 99.6166309,54.0262369 Z M88.1147279,60.0540413 C88.1147279,58.140793 89.6996797,56.5764618 91.635539,56.5764618 L107.479189,56.5764618 C109.416222,56.5764618 111,58.1413726 111,60.0540413 L111,75.0076327 C111,76.9203014 109.416222,78.4852121 107.479189,78.4852121 L106.775613,78.4852121 L106.775613,92.3955298 C106.775613,94.3081984 105.191249,95.8731092 103.254802,95.8731092 L95.8610991,95.8731092 C93.9240662,95.8731092 92.340288,94.3081984 92.340288,92.3955298 L92.340288,91.5840946 C93.0438634,90.3669418 93.3959445,88.97591 93.3959445,87.5269186 L93.3959445,69.385546 C93.3959445,65.8500069 91.2253645,62.7781451 88.1147279,61.445073 L88.1147279,60.0540413 Z M61.9439523,69.4429261 C61.9439523,67.530837 63.4696371,65.9653467 65.4647634,65.9659263 L84.6531838,65.9659263 C86.5896299,65.9659263 88.1739949,67.530837 88.1739949,69.4435057 L88.1739949,75.123552 L88.1739949,87.5842986 C88.1739949,89.4975469 86.5896299,91.0618781 84.6531838,91.0618781 L83.3035396,91.0618781 L83.3035396,107.522421 C83.3035396,109.435089 81.7191746,111 79.7827285,111 L70.3352187,111 C68.3987726,111 66.8144076,109.435089 66.8144076,107.522421 L66.8144076,91.1198377 L65.4647634,91.1198377 C63.5283173,91.1198377 61.9439523,89.554927 61.9439523,87.6422583 L61.9439523,75.1229724 L61.9439523,69.4429261 Z M75.0296335,63.0679434 C70.5248977,63.0679434 66.8730878,59.4609737 66.8730878,55.0115511 C66.8730878,50.5621285 70.5248977,46.9551588 75.0296335,46.9551588 C79.5343693,46.9551588 83.1861792,50.5621285 83.1861792,55.0115511 C83.1861792,59.4609737 79.5343693,63.0679434 75.0296335,63.0679434 Z"/>
</svg>
