<svg xmlns="http://www.w3.org/2000/svg" width="150" height="150" viewBox="0 0 150 150">
	<path fill="#fff" d="M75,150 C33.5769231,150 0,116.423077 0,75 C0,61.6153846 3.51923077,49.0673077 9.66346154,38.1634615 C12.2307692,34.7884615 16.7596154,37.4423077 14.2788462,42.0865385 C8.97115385,51.8942308 5.94230769,63.1153846 5.94230769,75 C5.94230769,113.134615 36.8653846,144.057692 75,144.057692 C113.134615,144.057692 144.057692,113.134615 144.057692,75 C144.057692,36.8653846 113.134615,5.94230769 75,5.94230769 C62.4519231,5.94230769 50.6826923,9.28846154 40.5288462,15.1442308 C35.3653846,18.0288462 33.3461538,12.6634615 36.4903846,10.6153846 C47.7692308,3.89423077 60.9230769,0 75,0 C116.423077,0 150,33.5769231 150,75 C150,116.423077 116.423077,150 75,150 Z M29.2788462,33.0865385 C29.2788462,33.1153846 29.2788462,33.1153846 29.2788462,33.0865385 C29.2788462,33.75 28.7596154,34.2692308 28.125,34.2692308 C27.9230769,34.2692308 27.75,34.2115385 27.5769231,34.125 L22.0673077,31.3557692 C19.8173077,30.3461538 18.3173077,28.3557692 18.2884615,26.1057692 C18.2884615,24.4038462 18.0288462,22.4423077 15.3173077,20.1057692 C9.98076923,15.4903846 1.35576923,7.99038462 0.432692308,7.18269231 C0.403846154,7.15384615 0.403846154,7.15384615 0.375,7.125 C0.346153846,7.125 0.346153846,7.125 0.346153846,7.125 C0.144230769,6.92307692 0,6.60576923 0,6.28846154 C0,5.65384615 0.519230769,5.13461538 1.15384615,5.13461538 C1.35576923,5.13461538 1.55769231,5.19230769 1.73076923,5.27884615 L25.4711538,17.3942308 C25.5288462,17.4230769 25.6153846,17.4807692 25.6730769,17.5096154 L25.7596154,17.5673077 C27.8653846,18.7211538 29.2788462,20.7115385 29.2788462,22.9615385 C29.2788462,22.9903846 29.2788462,22.9903846 29.2788462,23.0192308 C29.2788462,23.0192308 29.2788462,26.7692308 29.2788462,29.7115385 C29.2788462,31.9326923 29.2788462,32.9134615 29.2788462,33.0865385 Z M81.365732,93.433589 L77.4475,98.8615497 C76.947,99.5634098 76.1385,99.9834206 75.275,100 C75.2585,100 75.242,100 75.2255,100 C74.3785,100 73.581,99.6076215 73.0585,98.9389201 L68.718292,93.3477834 C64.7222563,97.4506419 59.1524623,100 53,100 C40.867,100 31,90.0855345 31,77.8941684 C31,72.9424621 32.639,68.222867 35.6475,64.3819788 C34.19,62.1382369 32.309,60.9058368 32.287,60.8892574 C31.2475,60.2371354 30.769,58.9715765 31.11,57.783388 C31.451,56.600726 32.5235,55.7883367 33.75,55.7883367 L46.4547312,55.7883367 C62.910222,41.4013811 87.089399,41.4063946 103.54498,55.7883367 L116.25,55.7883367 C117.4765,55.7883367 118.5545,56.600726 118.89,57.783388 C119.231,58.96605 118.7525,60.2316089 117.713,60.8892574 C117.6965,60.8947838 115.8045,62.1437633 114.347,64.3819788 C117.361,68.222867 119,72.9479885 119,77.8941684 C119,90.0855345 109.133,100 97,100 C90.8905418,100 85.355635,97.4861561 81.365732,93.433589 Z M83.4903047,87.4021435 C86.4780988,91.675211 91.4204165,94.4735421 97,94.4735421 C106.097,94.4735421 113.5,87.0349297 113.5,77.8941684 C113.5,73.6830074 111.916,69.6929048 109.034,66.6478265 C108.2585,65.8354372 108.0605,64.6306694 108.517,63.6027482 C108.891,62.7737795 109.32,62.0056019 109.7765,61.3147946 L97,61.3147946 C87.903,61.3147946 80.5,68.753407 80.5,77.8941684 C80.5,81.3971867 81.587246,84.650218 83.4404163,87.3303945 C83.4574565,87.354081 83.4740865,87.3780009 83.4903047,87.4021435 Z M77.8900612,88.8400073 C76.0514958,85.6111687 75,81.8739897 75,77.8941684 C75,66.5753451 83.5051688,57.2191674 94.4325116,55.9378927 C82.4550773,48.7290316 67.5494248,48.729094 55.5690851,55.9380799 C66.4956597,57.2200789 75,66.5758964 75,77.8941684 C75,81.8492345 73.9615445,85.5646674 72.144156,88.7796965 L75.143,92.6442845 L77.8900612,88.8400073 Z M47.5540722,61.3147946 C47.5154885,61.315608 47.4768996,61.3156078 47.4383329,61.3147946 L40.2235,61.3147946 C40.68,62.0056019 41.109,62.7737795 41.483,63.6027482 C41.945,64.6306694 41.7415,65.8299108 40.966,66.6478265 C38.0895,69.6873784 36.5,73.6830074 36.5,77.8941684 C36.5,87.0349297 43.903,94.4735421 53,94.4735421 C58.5839833,94.4735421 63.5296954,91.670796 66.5167598,87.392032 C66.5296405,87.3729932 66.5427772,87.354091 66.5561692,87.3353308 C68.4114184,84.6542126 69.5,81.3993376 69.5,77.8941684 C69.5,68.753407 62.097,61.3147946 53,61.3147946 L47.5540722,61.3147946 Z M53,66.8412526 C59.0665,66.8412526 64,71.7984853 64,77.8941684 C64,83.9898514 59.0665,88.9470842 53,88.9470842 C46.9335,88.9470842 42,83.9898514 42,77.8941684 C42,71.7984853 46.9335,66.8412526 53,66.8412526 Z M53,83.4206263 C56.0305,83.4206263 58.5,80.9447731 58.5,77.8941684 C58.5,74.8490901 56.0305,72.3677105 53,72.3677105 C49.9695,72.3677105 47.5,74.8490901 47.5,77.8941684 C47.5,80.9447731 49.9695,83.4206263 53,83.4206263 Z M53.11,75.1309394 C54.628,75.1309394 55.86,76.368866 55.86,77.8941684 C55.86,79.4194708 54.628,80.6573973 53.11,80.6573973 C51.592,80.6573973 50.3325,79.4194708 50.3325,77.8941684 C50.3325,76.368866 51.537,75.1309394 53.055,75.1309394 L53.11,75.1309394 Z M97,66.8412526 C103.0665,66.8412526 108,71.7984853 108,77.8941684 C108,83.9898514 103.0665,88.9470842 97,88.9470842 C90.9335,88.9470842 86,83.9898514 86,77.8941684 C86,71.7984853 90.9335,66.8412526 97,66.8412526 Z M97,83.4206263 C100.036,83.4206263 102.5,80.9447731 102.5,77.8941684 C102.5,74.8490901 100.036,72.3677105 97,72.3677105 C93.964,72.3677105 91.5,74.8490901 91.5,77.8941684 C91.5,80.9447731 93.964,83.4206263 97,83.4206263 Z M97.11,75.1309394 C98.628,75.1309394 99.86,76.368866 99.86,77.8941684 C99.86,79.4194708 98.628,80.6573973 97.11,80.6573973 C95.5975,80.6573973 94.3325,79.4194708 94.3325,77.8941684 C94.3325,76.368866 95.537,75.1309394 97.055,75.1309394 L97.11,75.1309394 Z" id="path-1"></path>
</svg>
