<svg version="1.1" id="Layer_1" xmlns="http://www.w3.org/2000/svg" xmlns:xlink="http://www.w3.org/1999/xlink" x="0px" y="0px"
	 viewBox="0 0 520 520" style="enable-background:new 0 0 520 520;" xml:space="preserve">
<path style="fill:#FFFFFF;" d="M260,520C116.4,520,0,403.6,0,260c0-46.4,12.2-89.9,33.5-127.7c8.9-11.7,24.6-2.5,16,13.6
	c-18.4,34-28.9,72.9-28.9,114.1c0,132.2,107.2,239.4,239.4,239.4S499.4,392.2,499.4,260S392.2,20.6,260,20.6
	c-43.5,0-84.3,11.6-119.5,31.9c-17.9,10-24.9-8.6-14-15.7C165.6,13.5,211.2,0,260,0c143.6,0,260,116.4,260,260S403.6,520,260,520
	L260,520z"/>
<path style="fill:#FFFFFF;" d="M101.5,114.7c0-0.6,0-4,0-11.7c0-10.2,0-23.2,0-23.2l0,0c0-0.1,0-0.1,0-0.2c0-7.8-4.9-14.7-12.2-18.7
	l0,0L89,60.7c-0.2-0.1-0.5-0.3-0.7-0.4L6,18.3l0,0c-0.6-0.3-1.3-0.5-2-0.5c-2.2,0-4,1.8-4,4c0,1.1,0.5,2.2,1.2,2.9l0,0
	c0,0,0,0,0.1,0c0.1,0.1,0.1,0.1,0.2,0.2c3.2,2.8,33.1,28.8,51.6,44.8c9.4,8.1,10.3,14.9,10.3,20.8l0,0c0.1,7.8,5.3,14.7,13.1,18.2
	l0,0l19.1,9.6l0,0c0.6,0.3,1.2,0.5,1.9,0.5C99.7,118.8,101.5,117,101.5,114.7C101.5,114.8,101.5,114.8,101.5,114.7z"/>
<path style="fill:#FFFFFF;" d="M232.8,251.1h10.3v42.4c0,0.8,0.7,1.5,1.5,1.5h17.5c0.8,0,1.5-0.7,1.5-1.5v-42.2h11.8
	c0.8,0,1.4-0.6,1.5-1.3l1.8-15.6c0-0.4-0.1-0.9-0.4-1.2s-0.7-0.5-1.1-0.5h-13.6v-9.8c0-3,1.6-4.4,4.7-4.4c0.4,0,8.9,0,8.9,0
	c0.8,0,1.5-0.7,1.5-1.5v-14.3c0-0.8-0.7-1.5-1.5-1.5h-12.3c-0.1,0-0.3,0-0.6,0c-2.1,0-9.5,0.4-15.4,5.8c-6,5.5-5.4,12.4-5.4,14.4
	v11.4h-10.8c-0.8,0-1.5,0.7-1.5,1.5v15.4C231.3,250.4,231.9,251.1,232.8,251.1z"/>
<path style="fill:#FFFFFF;" d="M405.1,329.9l-0.3,2.1l-6.2,35.6c-1.3,10.6-9,16.9-20.5,16.9H326c-5.4,0-13.4-5.7-13.4-13.6
	c0,0,0-28,0-39.3c0-13,10.1-16.1,10.1-16.1c0.8-0.2,13.2-5.7,13.2-20.8v-20.3c0-1.8,1.2-3.5,2.9-4c0.4-0.1,7.5-3.2,15,2.3
	c4.8,3.5,7.2,9.3,7.2,17.4v20h27.7c9.2,0,16.8,7.5,16.8,16.8C405.3,328,405.2,329,405.1,329.9z"/>
<path style="fill:#FFFFFF;" d="M177.9,298.5V202c-0.1-16.8,13.6-30.5,30.4-30.5h96.5c16.8,0,30.5,13.7,30.5,30.5v46.6l0.2,0.2
	c5.5-0.8,14.5-0.2,20.4,3.7v-52.8c0-26.8-21.9-48.8-48.8-48.8H206c-26.8,0-48.8,21.9-48.8,48.8v101.1c0,26.8,21.9,48.8,48.8,48.8
	h86.4V329h-84C191.6,329,177.9,315.3,177.9,298.5z"/>
</svg>
