<svg version="1.1" id="Layer_1" xmlns="http://www.w3.org/2000/svg" xmlns:xlink="http://www.w3.org/1999/xlink" x="0px" y="0px"
	 width="198.425px" height="113.386px" viewBox="0 0 198.425 113.386" enable-background="new 0 0 198.425 113.386"
	 xml:space="preserve">
<path style="fill:#FFFFFF;" d="M98.362,104.794c22.548,0,41.225-2.565,51.777-5.519c7.739-2.97,7.955-11.504,7.955-16.552c0-4.997,0-23.52,0-29.296
	c0-0.591,0-1.168,0-1.732c0-8.477,0-14.215,0-20.599c0-6.314-1.482-13.583-9.22-16.552c-10.553-2.954-27.964-5.52-50.512-5.52
	c-22.328,0-39.441,2.476-49.987,5.432c-7.934,2.564-9.46,9.544-9.46,16.64c0,6.41,0,12.196,0,20.706c0,0.572,0,1.154,0,1.751
	c0,5.778,0,24.165,0,29.17c0,4.777,0.261,14.077,8.195,16.64C57.656,102.318,76.035,104.794,98.362,104.794z M115.284,64.055
	c-0.172,1.006-0.818,1.994-1.939,2.735l-21.551,9.552c-2.384,1.331-6.664,3.107-6.664-2.242c0,0,0-5.289,0-10.108
	c0-0.271,0-0.541,0-0.811c0-4.727,0-9.189,0-9.189c0-5.348,4.28-3.573,6.664-2.241l21.551,9.551
	c1.121,0.743,1.767,1.732,1.939,2.736l-0.655-0.001L115.284,64.055z M52.883,21.3c8.33-2.21,28.19-5.002,45.825-5.002
	c17.81,0,37.905,2.86,46.239,5.068c6.113,2.22,6.284,4.37,6.284,11.205c0,1.498,0,3.828,0,6.544
	c-5.296-0.506-28.971-2.636-52.41-2.636c-22.087,0-45.784,1.98-52.41,2.576c0-2.435,0-4.667,0-6.484
	C46.411,25.654,46.616,23.216,52.883,21.3z"/>
<ellipse style="fill:#FFFFFF;" cx="57.149" cy="28.886" rx="4.193" ry="4.259"/>
<ellipse style="fill:#FFFFFF;" cx="69.229" cy="28.081" rx="4.193" ry="4.259"/>
<ellipse style="fill:#FFFFFF;" cx="81.019" cy="27.276" rx="4.193" ry="4.259"/>
</svg>
